<?xml version="1.0" standalone="no"?>
<!DOCTYPE svg PUBLIC "-//W3C//DTD SVG 20010904//EN"
 "http://www.w3.org/TR/2001/REC-SVG-20010904/DTD/svg10.dtd">
<svg version="1.0" xmlns="http://www.w3.org/2000/svg"
 width="277.000000pt" height="277.000000pt" viewBox="0 0 277.000000 277.000000"
 preserveAspectRatio="xMidYMid meet">
<metadata>
Created by potrace 1.11, written by Peter Selinger 2001-2013
</metadata>
<g transform="translate(0.000000,277.000000) scale(0.100000,-0.100000)"
fill="#000000" stroke="none">
<path d="M520 2014 c-106 -28 -200 -82 -275 -159 -90 -91 -128 -157 -160 -275
-54 -203 -21 -428 86 -587 53 -79 127 -141 224 -189 129 -63 242 -78 389 -54
112 18 258 103 312 182 15 21 31 38 35 38 5 0 9 -49 9 -110 l0 -110 60 0 60 0
0 335 0 335 -290 0 -290 0 0 -60 0 -60 231 0 232 0 -7 -62 c-18 -165 -154
-312 -327 -353 -185 -43 -362 7 -486 138 -94 99 -127 196 -126 367 1 176 43
281 154 385 96 90 226 131 384 122 147 -9 257 -64 335 -170 l35 -47 73 0 73 0
-28 52 c-43 80 -149 180 -235 222 -145 71 -334 96 -468 60z"/>
<path d="M1911 2009 c-160 -43 -287 -138 -373 -280 -122 -201 -122 -487 -1
-687 110 -180 290 -287 504 -299 209 -12 374 50 514 194 111 114 166 262 166
448 0 214 -76 382 -232 511 -145 119 -382 166 -578 113z m295 -120 c89 -16
161 -56 235 -129 106 -105 149 -212 149 -375 0 -155 -39 -259 -134 -363 -119
-128 -304 -179 -499 -137 -273 58 -431 343 -359 646 64 265 314 412 608 358z"/>
</g>
</svg>
